<svg version="1.1" viewBox="0 0 91 26" xmlns="http://www.w3.org/2000/svg">
<path fill="#FF9000" d="M87.9,0.2H46.3c-1.3,0.1-2,0.8-2.1,2.1v21.2c0.1,1.3,0.8,2,2.1,2.1h41.7c1.3-0.1,2-0.8,2.1-2.1V2.3 C89.9,1.1,89.2,0.4,87.9,0.2z" />
	<g>
		<path fill="#FFFFFF" d="M4.8,3.9v15.6H1V3.9H4.8z M11.8,3.9v2.9H3.5V3.9H11.8z M10.7,10.2V13H3.5v-2.8H10.7z M11.8,16.7v2.9H3.5 v-2.9H11.8z" />
		<path fill="#FFFFFF" d="M16.8,10.4v9.2h-3.6V8h3.4L16.8,10.4z M16.4,13.4l-0.8,0c0-0.8,0.1-1.6,0.3-2.3s0.5-1.3,0.9-1.8 c0.4-0.5,0.8-0.9,1.4-1.2c0.6-0.3,1.2-0.4,1.9-0.4c0.5,0,1,0.1,1.4,0.2c0.4,0.2,0.8,0.4,1.1,0.7C22.8,9,23,9.4,23.2,10 c0.2,0.5,0.2,1.1,0.2,1.9v7.8h-3.6v-7.3c0-0.5-0.1-0.9-0.2-1.1c-0.1-0.3-0.3-0.4-0.5-0.5c-0.2-0.1-0.5-0.1-0.8-0.1 c-0.3,0-0.6,0.1-0.8,0.2c-0.3,0.1-0.5,0.3-0.6,0.6c-0.2,0.3-0.3,0.6-0.4,0.9C16.4,12.6,16.4,13,16.4,13.4z M23,13.4l-1,0 c0-0.8,0.1-1.6,0.3-2.3s0.5-1.3,0.8-1.8c0.4-0.5,0.8-0.9,1.4-1.2c0.6-0.3,1.2-0.4,1.9-0.4c0.5,0,1,0.1,1.5,0.2 c0.4,0.2,0.8,0.4,1.1,0.8c0.3,0.4,0.6,0.8,0.8,1.4c0.2,0.6,0.3,1.3,0.3,2.1v7.3h-3.6v-7.3c0-0.5-0.1-0.8-0.2-1.1 c-0.1-0.2-0.3-0.4-0.5-0.5c-0.2-0.1-0.5-0.1-0.7-0.1c-0.3,0-0.6,0.1-0.9,0.2c-0.3,0.1-0.5,0.3-0.6,0.6c-0.2,0.3-0.3,0.6-0.4,0.9 C23.1,12.6,23,13,23,13.4z" />
		<path fill="#FFFFFF" d="M39.2,14.4l0.9,0c0,0.8-0.1,1.5-0.3,2.2c-0.2,0.7-0.5,1.2-0.8,1.7c-0.4,0.5-0.8,0.9-1.3,1.1 s-1.1,0.4-1.8,0.4c-0.6,0-1.1-0.1-1.6-0.2c-0.5-0.2-0.9-0.4-1.2-0.8s-0.6-0.8-0.8-1.3c-0.2-0.5-0.3-1.2-0.3-2V8h3.6v7.5 c0,0.3,0,0.5,0.1,0.7c0.1,0.2,0.2,0.3,0.3,0.5c0.1,0.1,0.3,0.2,0.5,0.3s0.4,0.1,0.6,0.1c0.5,0,1-0.1,1.3-0.3 c0.3-0.2,0.5-0.5,0.6-0.9C39.2,15.3,39.2,14.9,39.2,14.4z M38.9,16.8V8h3.6v11.6h-3.4L38.9,16.8z" />
	</g>
	<g>
		<path d="M51.7,18c0.4,0,0.8-0.1,1.1-0.2c0.3-0.2,0.6-0.4,0.8-0.7c0.2-0.3,0.3-0.6,0.3-1h2.7c0,0.8-0.2,1.5-0.7,2.1s-1,1.1-1.7,1.5 c-0.7,0.4-1.5,0.5-2.4,0.5c-0.9,0-1.7-0.2-2.3-0.5s-1.2-0.7-1.7-1.3c-0.4-0.5-0.8-1.2-1-1.9c-0.2-0.7-0.3-1.5-0.3-2.3v-0.3 c0-0.8,0.1-1.6,0.3-2.3c0.2-0.7,0.5-1.3,1-1.9c0.4-0.5,1-1,1.7-1.3s1.4-0.5,2.3-0.5c0.9,0,1.8,0.2,2.5,0.5c0.7,0.4,1.3,0.9,1.7,1.5 c0.4,0.7,0.6,1.5,0.6,2.4h-2.7c0-0.4-0.1-0.8-0.3-1.1c-0.2-0.3-0.4-0.6-0.7-0.8c-0.3-0.2-0.7-0.3-1.1-0.3c-0.5,0-0.9,0.1-1.2,0.3 c-0.3,0.2-0.6,0.5-0.7,0.8c-0.2,0.3-0.3,0.7-0.4,1.2c-0.1,0.4-0.1,0.9-0.1,1.3v0.3c0,0.5,0,0.9,0.1,1.4c0.1,0.4,0.2,0.8,0.4,1.2 c0.2,0.3,0.4,0.6,0.7,0.8C50.8,17.9,51.2,18,51.7,18z" />
		<path d="M61.2,3.5V20h-2.8V3.5H61.2z M60.7,13.8h-0.8c0-0.8,0.1-1.6,0.3-2.2c0.2-0.7,0.5-1.3,0.9-1.8s0.9-0.9,1.4-1.2 c0.5-0.3,1.2-0.4,1.8-0.4c0.6,0,1.1,0.1,1.6,0.2c0.5,0.2,0.9,0.4,1.2,0.8c0.3,0.4,0.6,0.8,0.8,1.4c0.2,0.6,0.3,1.2,0.3,2V20h-2.9 v-7.4c0-0.5-0.1-1-0.2-1.3s-0.4-0.5-0.7-0.7c-0.3-0.1-0.6-0.2-1.1-0.2c-0.5,0-0.9,0.1-1.2,0.3c-0.3,0.2-0.6,0.4-0.8,0.7 c-0.2,0.3-0.4,0.7-0.5,1.1C60.8,12.9,60.7,13.3,60.7,13.8z" />
		<path d="M77.5,13l0,1.7h-1.8c-0.4,0-0.8,0-1.2,0.1s-0.6,0.2-0.8,0.4s-0.4,0.4-0.5,0.6s-0.2,0.5-0.2,0.8c0,0.3,0.1,0.5,0.2,0.8 c0.1,0.2,0.3,0.4,0.6,0.5c0.3,0.1,0.6,0.2,0.9,0.2c0.5,0,0.9-0.1,1.3-0.3s0.7-0.5,0.9-0.7c0.2-0.3,0.3-0.6,0.3-0.8l0.8,1.2 c-0.1,0.3-0.3,0.6-0.5,0.9c-0.2,0.3-0.5,0.6-0.8,0.9c-0.3,0.3-0.7,0.5-1.1,0.7c-0.4,0.2-1,0.3-1.5,0.3c-0.8,0-1.4-0.2-2-0.5 s-1.1-0.7-1.4-1.2c-0.3-0.5-0.5-1.1-0.5-1.8c0-0.6,0.1-1.2,0.3-1.6s0.6-0.9,1-1.2c0.5-0.3,1-0.6,1.7-0.7c0.7-0.2,1.4-0.3,2.3-0.3 H77.5z M77.1,17.6v-5.4c0-0.4-0.1-0.7-0.2-1c-0.1-0.3-0.3-0.5-0.6-0.7c-0.3-0.2-0.6-0.2-1.1-0.2c-0.4,0-0.7,0.1-1,0.2 c-0.3,0.1-0.5,0.3-0.7,0.5c-0.2,0.2-0.2,0.5-0.2,0.8h-2.8c0-0.5,0.1-0.9,0.3-1.4c0.2-0.4,0.6-0.8,1-1.2c0.4-0.3,0.9-0.6,1.5-0.8 c0.6-0.2,1.3-0.3,2-0.3c0.9,0,1.7,0.1,2.4,0.4c0.7,0.3,1.2,0.7,1.6,1.3c0.4,0.6,0.6,1.3,0.6,2.2v5.1c0,0.6,0,1.1,0.1,1.5 c0.1,0.4,0.2,0.8,0.3,1.1V20h-2.9c-0.1-0.3-0.2-0.7-0.3-1.1C77.1,18.5,77.1,18,77.1,17.6z" />
		<path d="M88,8.4v2h-6.7v-2H88z M83.1,5.6H86v11.1c0,0.3,0,0.6,0.1,0.8c0.1,0.2,0.2,0.3,0.4,0.4s0.4,0.1,0.7,0.1c0.2,0,0.4,0,0.5,0 s0.3,0,0.4-0.1l0,2.1c-0.2,0.1-0.5,0.1-0.8,0.2c-0.3,0-0.6,0.1-1,0.1c-0.6,0-1.2-0.1-1.7-0.3s-0.9-0.6-1.1-1.1s-0.4-1.1-0.4-1.9 V5.6z" />
	</g>
</svg>